<!-- Generator: Adobe Illustrator 18.1.0, SVG Export Plug-In  -->
<svg version="1.1"
	 xmlns="http://www.w3.org/2000/svg" xmlns:xlink="http://www.w3.org/1999/xlink" xmlns:a="http://ns.adobe.com/AdobeSVGViewerExtensions/3.0/"
	 x="0px" y="0px" width="20.772px" height="30.295px" viewBox="0 0 20.772 30.295" enable-background="new 0 0 20.772 30.295"
	 xml:space="preserve">
<defs>
</defs>
<g>
	<g>
		<path fill="#231300" d="M16.647,30.224h0.838c0.394,0,0.715-0.32,0.715-0.715V13.063c0-0.395-0.321-0.715-0.715-0.715h-1.938
			c-0.394,0-0.715,0.32-0.715,0.715v10.2L8.408,15.56l-2.662-2.997c-0.134-0.152-0.33-0.24-0.533-0.24H3.917
			c-0.394,0-0.715,0.32-0.715,0.715V26.28c-0.084-0.034-0.176-0.052-0.268-0.052H1.04c-0.324,0-0.609,0.218-0.69,0.532
			C0.3,26.945,0.3,27.111,0.3,27.231c0,1.632,1.422,3.064,3.042,3.064c1.366,0,3.257-1.064,3.257-3.064v-8.619l9.502,11.356
			C16.233,30.13,16.435,30.224,16.647,30.224z"/>
	</g>
</g>
<g>
	<path fill="#D9394B" d="M10.386,5.44c-3.371,0-6.632-0.937-9.694-2.783C0.016,2.249-0.202,1.369,0.206,0.693
		c0.405-0.679,1.282-0.896,1.964-0.486c5.22,3.148,11.214,3.148,16.434,0c0.675-0.41,1.554-0.193,1.963,0.486
		c0.408,0.676,0.19,1.556-0.486,1.963C17.018,4.503,13.757,5.44,10.386,5.44z"/>
</g>
</svg>